<svg xmlns="http://www.w3.org/2000/svg" viewBox="0 0 708 130" width="708" height="130">
  <!-- kreuzhofer. Wordmark · dark · outlined paths (font-independent, Inter ExtraBold baked in)
       Generated 2026-06-12 via opentype.js. Punkt 10px overlap auf r-Terminal. -->
  <path d="M40.67 70.47L27.51 86.40L27.61 59.48L30.75 59.48L50.69 34.09L76.26 34.09L46.63 70.47L40.67 70.47ZM29.73 105L7.16 105L7.16 10.45L29.73 10.45L29.73 105ZM77.28 105L51.20 105L32.64 75.55L47.50 59.53L77.28 105ZM102.96 105L80.39 105L80.39 34.09L102.32 34.09L102.32 47.02L103.06 47.02Q105.00 40 109.38 36.56Q113.77 33.12 119.58 33.12L119.58 33.12Q121.15 33.12 122.81 33.33Q124.48 33.54 125.91 33.95L125.91 33.95L125.91 53.57Q124.29 53.02 121.68 52.70Q119.08 52.37 117.04 52.37L117.04 52.37Q113.03 52.37 109.82 54.15Q106.61 55.93 104.79 59.09Q102.96 62.25 102.96 66.50L102.96 66.50L102.96 105ZM164.29 106.34L164.29 106.34Q153.16 106.34 145.11 101.93Q137.05 97.52 132.73 89.33Q128.42 81.13 128.42 69.82L128.42 69.82Q128.42 58.84 132.76 50.59Q137.10 42.35 144.99 37.76Q152.88 33.17 163.59 33.17L163.59 33.17Q171.17 33.17 177.44 35.52Q183.72 37.88 188.29 42.49Q192.86 47.11 195.40 53.87Q197.94 60.64 197.94 69.36L197.94 69.36L197.94 74.99L136.31 74.99L136.31 61.88L176.94 61.88Q176.89 58.28 175.23 55.47Q173.57 52.65 170.68 51.06Q167.80 49.46 164.06 49.46L164.06 49.46Q160.27 49.46 157.27 51.15Q154.27 52.83 152.51 55.72Q150.76 58.60 150.67 62.25L150.67 62.25L150.67 75.59Q150.67 79.93 152.38 83.19Q154.08 86.44 157.22 88.24Q160.36 90.04 164.70 90.04L164.70 90.04Q167.70 90.04 170.15 89.21Q172.60 88.38 174.35 86.76Q176.11 85.15 176.98 82.79L176.98 82.79L197.71 83.39Q196.42 90.37 192.06 95.51Q187.69 100.66 180.63 103.50Q173.57 106.34 164.29 106.34ZM251.28 74.39L251.28 74.39L251.28 34.09L273.81 34.09L273.81 105L252.29 105L252.29 91.80L251.55 91.80Q249.20 98.31 243.55 102.11Q237.89 105.92 229.90 105.92L229.90 105.92Q222.66 105.92 217.16 102.60Q211.67 99.28 208.62 93.30Q205.57 87.32 205.53 79.29L205.53 79.29L205.53 34.09L228.10 34.09L228.10 74.85Q228.15 80.63 231.15 83.95Q234.15 87.27 239.32 87.27L239.32 87.27Q242.69 87.27 245.39 85.77Q248.09 84.27 249.69 81.39Q251.28 78.50 251.28 74.39ZM345.24 105L284.35 105L284.35 92.12L317.22 52.10L317.22 51.63L285.50 51.63L285.50 34.09L344.13 34.09L344.13 48.22L313.66 87.00L313.66 87.46L345.24 87.46L345.24 105ZM378.40 64.56L378.40 64.56L378.40 105L355.83 105L355.83 10.45L377.66 10.45L377.66 47.11L378.45 47.11Q380.85 40.55 386.32 36.86Q391.79 33.17 399.73 33.17L399.73 33.17Q407.21 33.17 412.75 36.47Q418.29 39.77 421.36 45.77Q424.43 51.77 424.38 59.80L424.38 59.80L424.38 105L401.81 105L401.81 64.24Q401.85 58.33 398.85 55.00Q395.85 51.68 390.40 51.68L390.40 51.68Q386.85 51.68 384.15 53.23Q381.45 54.77 379.95 57.63Q378.45 60.50 378.40 64.56ZM467.52 106.34L467.52 106.34Q456.34 106.34 448.33 101.75Q440.33 97.15 436.01 88.91Q431.69 80.67 431.69 69.78L431.69 69.78Q431.69 58.84 436.01 50.59Q440.33 42.35 448.33 37.76Q456.34 33.17 467.52 33.17L467.52 33.17Q478.69 33.17 486.70 37.76Q494.71 42.35 499.02 50.59Q503.34 58.84 503.34 69.78L503.34 69.78Q503.34 80.67 499.02 88.91Q494.71 97.15 486.70 101.75Q478.69 106.34 467.52 106.34ZM467.65 89.30L467.65 89.30Q471.72 89.30 474.53 86.81Q477.35 84.32 478.85 79.89Q480.35 75.45 480.35 69.64L480.35 69.64Q480.35 63.73 478.85 59.30Q477.35 54.87 474.53 52.37Q471.72 49.88 467.65 49.88L467.65 49.88Q463.45 49.88 460.57 52.37Q457.68 54.87 456.18 59.30Q454.68 63.73 454.68 69.64L454.68 69.64Q454.68 75.45 456.18 79.89Q457.68 84.32 460.57 86.81Q463.45 89.30 467.65 89.30ZM505.62 34.09L551.23 34.09L551.23 50.71L505.62 50.71L505.62 34.09ZM537.70 105L515.13 105L515.13 30.49Q515.13 22.27 518.22 16.85Q521.31 11.42 526.81 8.72Q532.30 6.02 539.50 6.02L539.50 6.02Q544.21 6.02 548.39 6.74Q552.57 7.45 554.60 8.01L554.60 8.01L551.00 24.53Q549.75 24.12 547.97 23.84Q546.20 23.57 544.63 23.57L544.63 23.57Q540.66 23.57 539.18 25.32Q537.70 27.07 537.70 30.12L537.70 30.12L537.70 105ZM591.27 106.34L591.27 106.34Q580.14 106.34 572.09 101.93Q564.03 97.52 559.72 89.33Q555.40 81.13 555.40 69.82L555.40 69.82Q555.40 58.84 559.74 50.59Q564.08 42.35 571.97 37.76Q579.87 33.17 590.58 33.17L590.58 33.17Q598.15 33.17 604.43 35.52Q610.71 37.88 615.28 42.49Q619.85 47.11 622.39 53.87Q624.92 60.64 624.92 69.36L624.92 69.36L624.92 74.99L563.29 74.99L563.29 61.88L603.92 61.88Q603.87 58.28 602.21 55.47Q600.55 52.65 597.66 51.06Q594.78 49.46 591.04 49.46L591.04 49.46Q587.25 49.46 584.25 51.15Q581.25 52.83 579.50 55.72Q577.74 58.60 577.65 62.25L577.65 62.25L577.65 75.59Q577.65 79.93 579.36 83.19Q581.07 86.44 584.21 88.24Q587.35 90.04 591.69 90.04L591.69 90.04Q594.69 90.04 597.13 89.21Q599.58 88.38 601.33 86.76Q603.09 85.15 603.97 82.79L603.97 82.79L624.69 83.39Q623.40 90.37 619.04 95.51Q614.68 100.66 607.61 103.50Q600.55 106.34 591.27 106.34ZM655.09 105L632.51 105L632.51 34.09L654.44 34.09L654.44 47.02L655.18 47.02Q657.12 40 661.50 36.56Q665.89 33.12 671.71 33.12L671.71 33.12Q673.28 33.12 674.94 33.33Q676.60 33.54 678.03 33.95L678.03 33.95L678.03 53.57Q676.41 53.02 673.81 52.70Q671.20 52.37 669.17 52.37L669.17 52.37Q665.15 52.37 661.94 54.15Q658.73 55.93 656.91 59.09Q655.09 62.25 655.09 66.50L655.09 66.50L655.09 105Z" fill="#FFFFFF"/>
  <circle cx="684.03" cy="102" r="16" fill="#E89244"/>
</svg>
